<svg width="49" height="49" viewBox="0 0 49 49" fill="none" xmlns="http://www.w3.org/2000/svg">
<path d="M10.3571 19.8182V30H7.59286V22.3636H7.5332L5.30593 23.696V21.3494L7.81161 19.8182H10.3571ZM16.7033 30.1392C16.11 30.1392 15.5466 30.0464 15.013 29.8608C14.4827 29.6719 14.012 29.3752 13.601 28.9709C13.19 28.5665 12.8669 28.0395 12.6316 27.3899C12.3996 26.7403 12.2852 25.9531 12.2885 25.0284C12.2918 24.2031 12.3979 23.4607 12.6067 22.8011C12.8188 22.1416 13.1188 21.5798 13.5066 21.1158C13.8977 20.6518 14.365 20.2971 14.9086 20.0518C15.4521 19.8033 16.057 19.679 16.7232 19.679C17.4722 19.679 18.1318 19.8232 18.7019 20.1115C19.272 20.3999 19.726 20.786 20.0641 21.2699C20.4055 21.7505 20.6043 22.2808 20.6607 22.8608H17.9363C17.8733 22.5724 17.7275 22.362 17.4988 22.2294C17.2734 22.0935 17.0149 22.0256 16.7232 22.0256C16.1432 22.0256 15.7173 22.2775 15.4455 22.7812C15.177 23.285 15.0395 23.9479 15.0328 24.7699H15.0925C15.2218 24.4583 15.4173 24.1915 15.6792 23.9695C15.941 23.7474 16.2459 23.5767 16.5939 23.4574C16.9419 23.3381 17.3098 23.2784 17.6976 23.2784C18.3141 23.2784 18.8527 23.4176 19.3134 23.696C19.7774 23.9744 20.1387 24.3556 20.3972 24.8395C20.6557 25.3234 20.7833 25.8769 20.78 26.5C20.7833 27.2292 20.611 27.8672 20.263 28.4141C19.9183 28.9609 19.4393 29.3852 18.8262 29.6868C18.213 29.9884 17.5054 30.1392 16.7033 30.1392ZM16.6834 28.0511C16.9585 28.0511 17.2021 27.9882 17.4142 27.8622C17.6297 27.7363 17.7971 27.5639 17.9164 27.3452C18.039 27.1264 18.0987 26.8778 18.0953 26.5994C18.0987 26.3177 18.039 26.0691 17.9164 25.8537C17.7971 25.6349 17.6297 25.4626 17.4142 25.3366C17.2021 25.2107 16.9585 25.1477 16.6834 25.1477C16.4812 25.1477 16.294 25.1842 16.1216 25.2571C15.9526 25.3267 15.8051 25.4278 15.6792 25.5604C15.5532 25.6896 15.4538 25.8437 15.3809 26.0227C15.3113 26.1984 15.2748 26.3906 15.2715 26.5994C15.2748 26.8778 15.3378 27.1264 15.4604 27.3452C15.583 27.5639 15.7504 27.7363 15.9625 27.8622C16.1747 27.9882 16.415 28.0511 16.6834 28.0511ZM31.413 23.179C31.3699 23.0033 31.302 22.8492 31.2092 22.7166C31.1164 22.5807 31.0004 22.4664 30.8612 22.3736C30.7253 22.2775 30.5662 22.2062 30.3839 22.1598C30.2049 22.1101 30.0077 22.0852 29.7923 22.0852C29.3282 22.0852 28.9322 22.1963 28.604 22.4183C28.2792 22.6404 28.0307 22.9602 27.8583 23.3778C27.6893 23.7955 27.6048 24.2992 27.6048 24.8892C27.6048 25.4858 27.686 25.9962 27.8484 26.4205C28.0108 26.8447 28.2527 27.1695 28.5742 27.3949C28.8957 27.6203 29.2951 27.733 29.7724 27.733C30.1933 27.733 30.543 27.6716 30.8214 27.549C31.1031 27.4264 31.3136 27.2524 31.4528 27.027C31.592 26.8016 31.6616 26.5365 31.6616 26.2315L32.1388 26.2812H29.8121V24.3125H34.3263V25.7244C34.3263 26.6525 34.1291 27.4463 33.7347 28.1058C33.3436 28.7621 32.8034 29.2659 32.114 29.6172C31.4279 29.9652 30.6407 30.1392 29.7525 30.1392C28.7615 30.1392 27.8915 29.9287 27.1424 29.5078C26.3933 29.0869 25.8084 28.487 25.3874 27.7081C24.9698 26.9292 24.761 26.0028 24.761 24.929C24.761 24.0871 24.8886 23.3414 25.1438 22.6918C25.4023 22.0421 25.7603 21.4936 26.2177 21.0462C26.6751 20.5954 27.2037 20.2557 27.8036 20.027C28.4035 19.795 29.0465 19.679 29.7326 19.679C30.3358 19.679 30.896 19.7652 31.413 19.9375C31.9334 20.1065 32.3924 20.3485 32.7901 20.6634C33.1912 20.9749 33.5143 21.3445 33.7596 21.772C34.0049 22.1996 34.154 22.6686 34.207 23.179H31.413ZM35.6152 30V19.8182H40.03C40.8056 19.8182 41.4569 19.9226 41.9838 20.1314C42.5141 20.3402 42.9135 20.6352 43.182 21.0163C43.4538 21.3975 43.5897 21.8466 43.5897 22.3636C43.5897 22.7382 43.5068 23.0795 43.3411 23.3878C43.1787 23.696 42.95 23.9545 42.655 24.1634C42.36 24.3688 42.0153 24.5114 41.6209 24.5909V24.6903C42.0584 24.7069 42.4561 24.8179 42.8141 25.0234C43.1721 25.2256 43.4571 25.5057 43.6692 25.8636C43.8813 26.2183 43.9874 26.6359 43.9874 27.1165C43.9874 27.6733 43.8416 28.1688 43.5499 28.603C43.2615 29.0372 42.8506 29.3786 42.3169 29.6271C41.7833 29.8757 41.147 30 40.4078 30H35.6152ZM38.3794 27.7926H39.6721C40.1361 27.7926 40.4841 27.7064 40.7161 27.5341C40.9481 27.3584 41.0641 27.0999 41.0641 26.7585C41.0641 26.5199 41.0094 26.3177 40.9 26.152C40.7907 25.9863 40.6349 25.8603 40.4327 25.7741C40.2338 25.688 39.9935 25.6449 39.7118 25.6449H38.3794V27.7926ZM38.3794 23.9347H39.513C39.7549 23.9347 39.9687 23.8965 40.1543 23.8203C40.3399 23.7441 40.4841 23.6347 40.5868 23.4922C40.6929 23.3464 40.7459 23.169 40.7459 22.9602C40.7459 22.6454 40.6332 22.4051 40.4078 22.2393C40.1825 22.0703 39.8974 21.9858 39.5527 21.9858H38.3794V23.9347Z" fill="#2C69A7"/>
</svg>
