<svg width="49" height="50" viewBox="0 0 49 50" fill="none" xmlns="http://www.w3.org/2000/svg">
<path d="M9.17321 30.5732V28.5846L12.9715 25.4426C13.2234 25.2338 13.4388 25.0382 13.6178 24.8559C13.8001 24.6703 13.9393 24.4797 14.0354 24.2842C14.1349 24.0886 14.1846 23.8715 14.1846 23.6329C14.1846 23.3711 14.1282 23.1473 14.0155 22.9617C13.9062 22.7761 13.7537 22.6336 13.5581 22.5342C13.3626 22.4314 13.1372 22.3801 12.882 22.3801C12.6268 22.3801 12.4014 22.4314 12.2059 22.5342C12.0136 22.6369 11.8645 22.7877 11.7584 22.9866C11.6524 23.1855 11.5993 23.4274 11.5993 23.7124H8.97434C8.97434 22.9965 9.13509 22.3801 9.45659 21.863C9.77808 21.346 10.2322 20.9482 10.8188 20.6698C11.4055 20.3914 12.0932 20.2522 12.882 20.2522C13.6974 20.2522 14.4033 20.3831 14.9999 20.645C15.5998 20.9035 16.0622 21.2681 16.387 21.7387C16.7151 22.2094 16.8792 22.7612 16.8792 23.3943C16.8792 23.7854 16.798 24.1748 16.6356 24.5626C16.4732 24.9471 16.1815 25.373 15.7606 25.8403C15.3396 26.3076 14.7414 26.8644 13.9658 27.5107L13.0113 28.3062V28.3659H16.9885V30.5732H9.17321ZM27.6054 23.7522C27.5623 23.5766 27.4943 23.4224 27.4015 23.2899C27.3087 23.154 27.1927 23.0396 27.0535 22.9468C26.9176 22.8507 26.7586 22.7794 26.5763 22.733C26.3973 22.6833 26.2001 22.6585 25.9846 22.6585C25.5206 22.6585 25.1246 22.7695 24.7964 22.9916C24.4716 23.2136 24.223 23.5335 24.0507 23.9511C23.8817 24.3687 23.7971 24.8725 23.7971 25.4624C23.7971 26.059 23.8783 26.5695 24.0407 26.9937C24.2032 27.4179 24.4451 27.7427 24.7666 27.9681C25.0881 28.1935 25.4875 28.3062 25.9648 28.3062C26.3857 28.3062 26.7354 28.2449 27.0138 28.1222C27.2955 27.9996 27.5059 27.8256 27.6452 27.6002C27.7844 27.3749 27.854 27.1097 27.854 26.8048L28.3312 26.8545H26.0045V24.8857H30.5187V26.2977C30.5187 27.2257 30.3215 28.0195 29.9271 28.6791C29.536 29.3353 28.9958 29.8391 28.3064 30.1904C27.6203 30.5384 26.8331 30.7124 25.9449 30.7124C24.9539 30.7124 24.0838 30.502 23.3348 30.0811C22.5857 29.6601 22.0007 29.0602 21.5798 28.2813C21.1622 27.5025 20.9534 26.5761 20.9534 25.5022C20.9534 24.6604 21.081 23.9146 21.3362 23.265C21.5947 22.6154 21.9527 22.0669 22.4101 21.6194C22.8675 21.1686 23.3961 20.8289 23.996 20.6002C24.5959 20.3682 25.2389 20.2522 25.925 20.2522C26.5282 20.2522 27.0883 20.3384 27.6054 20.5107C28.1257 20.6798 28.5848 20.9217 28.9825 21.2366C29.3836 21.5481 29.7067 21.9177 29.952 22.3453C30.1972 22.7728 30.3464 23.2418 30.3994 23.7522H27.6054ZM31.8076 30.5732V20.3914H36.2224C36.998 20.3914 37.6492 20.4958 38.1762 20.7046C38.7065 20.9134 39.1059 21.2084 39.3744 21.5896C39.6462 21.9707 39.782 22.4198 39.782 22.9369C39.782 23.3114 39.6992 23.6528 39.5335 23.961C39.3711 24.2693 39.1424 24.5278 38.8474 24.7366C38.5524 24.9421 38.2077 25.0846 37.8133 25.1642V25.2636C38.2508 25.2802 38.6485 25.3912 39.0065 25.5967C39.3644 25.7989 39.6495 26.0789 39.8616 26.4369C40.0737 26.7915 40.1798 27.2091 40.1798 27.6897C40.1798 28.2465 40.0339 28.742 39.7423 29.1762C39.4539 29.6104 39.0429 29.9518 38.5093 30.2004C37.9757 30.449 37.3393 30.5732 36.6002 30.5732H31.8076ZM34.5718 28.3659H35.8644C36.3285 28.3659 36.6765 28.2797 36.9085 28.1073C37.1405 27.9317 37.2565 27.6731 37.2565 27.3318C37.2565 27.0931 37.2018 26.891 37.0924 26.7252C36.983 26.5595 36.8273 26.4336 36.6251 26.3474C36.4262 26.2612 36.1859 26.2181 35.9042 26.2181H34.5718V28.3659ZM34.5718 24.5079H35.7053C35.9473 24.5079 36.1611 24.4698 36.3467 24.3936C36.5323 24.3173 36.6765 24.2079 36.7792 24.0654C36.8853 23.9196 36.9383 23.7423 36.9383 23.5335C36.9383 23.2186 36.8256 22.9783 36.6002 22.8126C36.3749 22.6436 36.0898 22.559 35.7451 22.559H34.5718V24.5079Z" fill="#2C69A7"/>
</svg>
