<svg width="50" height="50" viewBox="0 0 50 50" fill="none" xmlns="http://www.w3.org/2000/svg">
<path d="M16.371 20.4821C15.4949 20.4821 14.7172 20.328 14.0379 20.0199C13.3623 19.7081 12.8296 19.2793 12.4398 18.7336C12.0538 18.188 11.857 17.5606 11.8496 16.8516H14.8564C14.8676 17.2451 15.0198 17.5588 15.313 17.7926C15.61 18.0265 15.9626 18.1434 16.371 18.1434C16.6865 18.1434 16.9649 18.0766 17.2062 17.943C17.4475 17.8056 17.6368 17.6126 17.7742 17.3639C17.9115 17.1152 17.9783 16.8256 17.9746 16.4952C17.9783 16.1611 17.9115 15.8716 17.7742 15.6266C17.6368 15.3779 17.4475 15.1867 17.2062 15.0531C16.9649 14.9157 16.6865 14.8471 16.371 14.8471C16.0443 14.8471 15.7418 14.9269 15.4634 15.0865C15.1887 15.2424 14.9864 15.4596 14.8564 15.738L12.1392 15.2034L12.5846 8.92251H20.2464V11.3948H15.1237L14.901 13.9116H14.9678C15.146 13.5664 15.4541 13.2805 15.8921 13.0541C16.3301 12.824 16.8387 12.7089 17.4178 12.7089C18.0971 12.7089 18.7022 12.8666 19.233 13.1822C19.7676 13.4977 20.1889 13.9339 20.497 14.4907C20.8088 15.0438 20.9629 15.6823 20.9592 16.4061C20.9629 17.2005 20.7735 17.9058 20.3912 18.5221C20.0126 19.1346 19.4799 19.6153 18.7931 19.9642C18.1064 20.3094 17.299 20.4821 16.371 20.4821Z" fill="#00529C"/>
<path d="M27.8846 8.92251V20.3261H24.7887V11.7734H24.7219L22.2273 13.2657V10.6375L25.0337 8.92251H27.8846Z" fill="#00529C"/>
<path d="M30.226 20.3261V18.0989L34.4801 14.5798C34.7622 14.3459 35.0035 14.1269 35.204 13.9227C35.4081 13.7149 35.564 13.5014 35.6717 13.2824C35.783 13.0634 35.8387 12.8202 35.8387 12.553C35.8387 12.2597 35.7756 12.0091 35.6494 11.8013C35.5269 11.5934 35.3562 11.4338 35.1371 11.3224C34.9181 11.2073 34.6657 11.1498 34.3799 11.1498C34.094 11.1498 33.8416 11.2073 33.6226 11.3224C33.4073 11.4375 33.2402 11.6064 33.1215 11.8291C33.0027 12.0518 32.9433 12.3228 32.9433 12.6421H30.0033C30.0033 11.8402 30.1833 11.1498 30.5434 10.5707C30.9035 9.9916 31.412 9.54615 32.0691 9.23433C32.7261 8.92251 33.4964 8.7666 34.3799 8.7666C35.293 8.7666 36.0837 8.91323 36.7519 9.20649C37.4238 9.49603 37.9416 9.90437 38.3054 10.4315C38.6729 10.9586 38.8567 11.5767 38.8567 12.2857C38.8567 12.7237 38.7657 13.1599 38.5838 13.5942C38.4019 14.0248 38.0753 14.5018 37.6038 15.0252C37.1324 15.5486 36.4624 16.1723 35.5937 16.8961L34.5246 17.7871V17.8539H38.9792V20.3261H30.226Z" fill="#00529C"/>
<path d="M13.5208 27.8692H17.3739L20.0244 34.3283H20.158L22.8085 27.8692H26.6617V39.2728H23.6326V32.6801H23.5435L21.0044 39.1837H19.178L16.6389 32.6355H16.5499V39.2728H13.5208V27.8692Z" fill="#00529C"/>
<path d="M28.1289 39.2728V27.8692H33.0734C33.9421 27.8692 34.6715 27.9861 35.2617 28.22C35.8557 28.4538 36.303 28.7842 36.6037 29.2111C36.9081 29.638 37.0602 30.141 37.0602 30.7201C37.0602 31.1396 36.9674 31.5219 36.7818 31.8671C36.5999 32.2124 36.3438 32.5019 36.0134 32.7358C35.6831 32.9659 35.297 33.1255 34.8552 33.2146V33.326C35.3452 33.3446 35.7907 33.4689 36.1916 33.6991C36.5925 33.9255 36.9118 34.2392 37.1493 34.6401C37.3869 35.0373 37.5057 35.505 37.5057 36.0433C37.5057 36.6669 37.3424 37.2219 37.0157 37.7082C36.6927 38.1944 36.2324 38.5768 35.6348 38.8552C35.0371 39.1336 34.3244 39.2728 33.4966 39.2728H28.1289ZM31.2248 36.8005H32.6725C33.1922 36.8005 33.582 36.704 33.8418 36.511C34.1017 36.3143 34.2316 36.0247 34.2316 35.6424C34.2316 35.3751 34.1704 35.1486 34.0479 34.963C33.9254 34.7774 33.7509 34.6364 33.5245 34.5399C33.3017 34.4433 33.0326 34.3951 32.7171 34.3951H31.2248V36.8005ZM31.2248 32.4796H32.4943C32.7653 32.4796 33.0048 32.4369 33.2126 32.3516C33.4205 32.2662 33.582 32.1437 33.6971 31.9841C33.8159 31.8207 33.8752 31.6221 33.8752 31.3883C33.8752 31.0356 33.749 30.7665 33.4966 30.5809C33.2442 30.3916 32.9249 30.2969 32.5389 30.2969H31.2248V32.4796Z" fill="#00529C"/>
</svg>
