<svg width="51" height="50" viewBox="0 0 51 50" fill="none" xmlns="http://www.w3.org/2000/svg">
<path d="M25.4993 20.4821C24.5599 20.4821 23.7209 20.3391 22.9822 20.0533C22.2474 19.7675 21.6678 19.3796 21.2436 18.8896C20.8232 18.3996 20.6129 17.8465 20.6129 17.2302C20.6129 16.7588 20.7322 16.3282 20.9709 15.9384C21.2133 15.5486 21.5391 15.2257 21.9482 14.9696C22.3572 14.7097 22.8137 14.5427 23.3175 14.4684V14.3793C22.6546 14.268 22.1091 13.9803 21.6811 13.5163C21.2569 13.0485 21.0447 12.4973 21.0447 11.8625C21.0447 11.2649 21.2379 10.734 21.6243 10.27C22.0107 9.80228 22.5391 9.43478 23.2095 9.16751C23.88 8.90024 24.6432 8.7666 25.4993 8.7666C26.3554 8.7666 27.1186 8.90209 27.7891 9.17308C28.4595 9.44035 28.9879 9.80785 29.3743 10.2756C29.7607 10.7396 29.9538 11.2686 29.9538 11.8625C29.9538 12.501 29.7379 13.0522 29.3061 13.5163C28.8743 13.9803 28.3326 14.268 27.6811 14.3793V14.4684C28.1811 14.5427 28.6357 14.7097 29.0447 14.9696C29.4538 15.2257 29.7796 15.5486 30.022 15.9384C30.2644 16.3282 30.3857 16.7588 30.3857 17.2302C30.3857 17.8465 30.1735 18.3996 29.7493 18.8896C29.3288 19.3796 28.7493 19.7675 28.0107 20.0533C27.2758 20.3391 26.4387 20.4821 25.4993 20.4821ZM25.4993 18.3439C25.7985 18.3439 26.0637 18.2845 26.2947 18.1657C26.5258 18.0469 26.7076 17.8836 26.8402 17.6757C26.9766 17.4641 27.0447 17.2265 27.0447 16.963C27.0447 16.6994 26.9766 16.4655 26.8402 16.2614C26.7076 16.0572 26.5258 15.8976 26.2947 15.7825C26.0637 15.6637 25.7985 15.6043 25.4993 15.6043C25.2038 15.6043 24.9387 15.6637 24.7038 15.7825C24.4728 15.8976 24.2891 16.0572 24.1527 16.2614C24.0201 16.4655 23.9538 16.6994 23.9538 16.963C23.9538 17.2265 24.0201 17.4622 24.1527 17.6701C24.2891 17.878 24.4728 18.0432 24.7038 18.1657C24.9387 18.2845 25.2038 18.3439 25.4993 18.3439ZM25.4993 13.4661C25.7644 13.4661 25.9993 13.4123 26.2038 13.3047C26.4084 13.197 26.5694 13.0485 26.6868 12.8592C26.8042 12.6699 26.8629 12.4565 26.8629 12.2189C26.8629 11.9813 26.8042 11.7716 26.6868 11.5897C26.5694 11.4041 26.4084 11.2593 26.2038 11.1554C25.9993 11.0477 25.7644 10.9939 25.4993 10.9939C25.2379 10.9939 25.0031 11.0477 24.7947 11.1554C24.5902 11.2593 24.4292 11.4041 24.3118 11.5897C24.1944 11.7716 24.1357 11.9813 24.1357 12.2189C24.1357 12.4565 24.1944 12.6699 24.3118 12.8592C24.4292 13.0448 24.5902 13.1933 24.7947 13.3047C25.0031 13.4123 25.2379 13.4661 25.4993 13.4661Z" fill="#00529C"/>
<path d="M13.4531 27.8692H17.3849L20.0895 34.3283H20.2259L22.9304 27.8692H26.8622V39.2728H23.7713V32.6801H23.6804L21.0895 39.1837H19.2259L16.6349 32.6355H16.544V39.2728H13.4531V27.8692Z" fill="#00529C"/>
<path d="M28.3594 39.2728V27.8692H33.4048C34.2912 27.8692 35.0355 27.9861 35.6378 28.22C36.2438 28.4538 36.7003 28.7842 37.0071 29.2111C37.3177 29.638 37.473 30.141 37.473 30.7201C37.473 31.1396 37.3783 31.5219 37.1889 31.8671C37.0033 32.2124 36.742 32.5019 36.4048 32.7358C36.0677 32.9659 35.6738 33.1255 35.223 33.2146V33.326C35.723 33.3446 36.1776 33.4689 36.5866 33.6991C36.9957 33.9255 37.3215 34.2392 37.5639 34.6401C37.8063 35.0373 37.9276 35.505 37.9276 36.0433C37.9276 36.6669 37.7609 37.2219 37.4276 37.7082C37.098 38.1944 36.6283 38.5768 36.0185 38.8552C35.4086 39.1336 34.6813 39.2728 33.8366 39.2728H28.3594ZM31.5185 36.8005H32.9957C33.526 36.8005 33.9238 36.704 34.1889 36.511C34.4541 36.3143 34.5866 36.0247 34.5866 35.6424C34.5866 35.3751 34.5241 35.1486 34.3991 34.963C34.2741 34.7774 34.0961 34.6364 33.8651 34.5399C33.6378 34.4433 33.3632 34.3951 33.0412 34.3951H31.5185V36.8005ZM31.5185 32.4796H32.8139C33.0904 32.4796 33.3348 32.4369 33.5469 32.3516C33.759 32.2662 33.9238 32.1437 34.0412 31.9841C34.1624 31.8207 34.223 31.6221 34.223 31.3883C34.223 31.0356 34.0942 30.7665 33.8366 30.5809C33.5791 30.3916 33.2533 30.2969 32.8594 30.2969H31.5185V32.4796Z" fill="#00529C"/>
</svg>
