<svg width="30" height="31" viewBox="0 0 30 31" fill="none" xmlns="http://www.w3.org/2000/svg">
<path d="M23.7046 19.6634L20.5889 19.3077C19.8406 19.2218 19.1046 19.4794 18.5772 20.0069L16.3201 22.2639C12.8486 20.4975 10.0028 17.6639 8.23636 14.1802L10.5057 11.9109C11.0332 11.3834 11.2908 10.6474 11.2049 9.89912L10.8492 6.80792C10.702 5.56899 9.6593 4.63672 8.4081 4.63672H6.28596C4.89983 4.63672 3.74676 5.78979 3.83263 7.17592C4.48276 17.6517 12.8609 26.0175 23.3244 26.6677C24.7105 26.7535 25.8636 25.6005 25.8636 24.2143V22.0922C25.8758 20.8533 24.9436 19.8106 23.7046 19.6634Z" fill="black"/>
</svg>
