<svg width="30" height="30" viewBox="0 0 30 30" fill="none" xmlns="http://www.w3.org/2000/svg">
<path d="M14.8355 1.68262C7.36829 1.68262 1.29306 7.75785 1.29306 15.225C1.29306 17.5567 1.8954 19.8495 3.03767 21.8726L1.31484 28.0196C1.25832 28.2216 1.31308 28.4383 1.4591 28.5884C1.57156 28.7044 1.72465 28.7674 1.88186 28.7674C1.92896 28.7674 1.97665 28.7615 2.02317 28.7503L8.43873 27.1612C10.3977 28.2128 12.6039 28.7674 14.8355 28.7674C22.3026 28.7674 28.3779 22.6922 28.3779 15.225C28.3779 7.75785 22.3026 1.68262 14.8355 1.68262ZM21.6479 20.0037C21.3582 20.8057 19.9686 21.5375 19.3009 21.6359C18.7015 21.7236 17.9431 21.7613 17.1106 21.4999C16.606 21.3409 15.9583 21.1301 15.1287 20.7762C11.6412 19.2889 9.36374 15.8215 9.18945 15.5924C9.01576 15.3634 7.76986 13.7312 7.76986 12.042C7.76986 10.3527 8.66778 9.5219 8.98691 9.17804C9.30604 8.83418 9.68228 8.74822 9.91427 8.74822C10.1463 8.74822 10.3777 8.75116 10.5808 8.76058C10.7945 8.77118 11.0813 8.67992 11.3633 9.34997C11.653 10.0377 12.3484 11.727 12.4343 11.8995C12.5215 12.0714 12.5792 12.2722 12.4638 12.5012C12.3484 12.7303 12.2907 12.8733 12.1164 13.0741C11.9421 13.2749 11.7513 13.5216 11.5947 13.6759C11.4204 13.8472 11.2397 14.0327 11.4422 14.3766C11.6447 14.7204 12.3425 15.8444 13.3764 16.7547C14.7042 17.9241 15.8246 18.2868 16.172 18.4587C16.5194 18.6306 16.7226 18.6018 16.9251 18.3727C17.1277 18.1431 17.7942 17.37 18.0256 17.0267C18.257 16.6835 18.489 16.74 18.8081 16.8548C19.1272 16.969 20.8365 17.7992 21.1839 17.9712C21.5313 18.1431 21.7633 18.2291 21.8504 18.3722C21.9376 18.5146 21.9376 19.2024 21.6479 20.0037Z" fill="black"/>
</svg>
