<svg width="30" height="30" viewBox="0 0 30 30" fill="none" xmlns="http://www.w3.org/2000/svg">
<path d="M24.6484 4.9707H5.02169C3.67236 4.9707 2.58063 6.0747 2.58063 7.42404L2.56836 22.144C2.56836 23.4934 3.67236 24.5974 5.02169 24.5974H24.6484C25.9977 24.5974 27.1017 23.4934 27.1017 22.144V7.42404C27.1017 6.0747 25.9977 4.9707 24.6484 4.9707ZM24.1577 10.184L15.4852 15.6059C15.0926 15.8512 14.5774 15.8512 14.1849 15.6059L5.51236 10.184C5.20569 9.98777 5.02169 9.65657 5.02169 9.30084C5.02169 8.47897 5.91716 7.9883 6.61636 8.41764L14.835 13.5574L23.0537 8.41764C23.7529 7.9883 24.6484 8.47897 24.6484 9.30084C24.6484 9.65657 24.4644 9.98777 24.1577 10.184Z" fill="black"/>
</svg>
