<svg width="30" height="31" viewBox="0 0 30 31" fill="none" xmlns="http://www.w3.org/2000/svg">
<path d="M14.8347 3.39746C10.0875 3.39746 6.24805 7.23693 6.24805 11.9841C6.24805 14.1185 6.86138 16.118 7.97765 17.9212C9.14298 19.8103 10.6763 21.4295 11.8539 23.3185C12.4304 24.2385 12.8475 25.0972 13.2891 26.0908C13.608 26.7655 13.8656 27.9308 14.8347 27.9308C15.8038 27.9308 16.0614 26.7655 16.368 26.0908C16.8219 25.0972 17.2267 24.2385 17.8032 23.3185C18.9808 21.4417 20.5142 19.8225 21.6795 17.9212C22.808 16.118 23.4214 14.1185 23.4214 11.9841C23.4214 7.23693 19.5819 3.39746 14.8347 3.39746ZM14.8347 15.3575C13.1419 15.3575 11.768 13.9836 11.768 12.2908C11.768 10.598 13.1419 9.22413 14.8347 9.22413C16.5275 9.22413 17.9014 10.598 17.9014 12.2908C17.9014 13.9836 16.5275 15.3575 14.8347 15.3575Z" fill="black"/>
</svg>
